<?xml version="1.0" encoding="utf-8"?>
<!-- Generator: Adobe Illustrator 19.2.1, SVG Export Plug-In . SVG Version: 6.00 Build 0)  -->
<svg version="1.1" id="Слой_1" xmlns="http://www.w3.org/2000/svg" xmlns:xlink="http://www.w3.org/1999/xlink" x="0px" y="0px"
	 viewBox="0 0 24 24" style="enable-background:new 0 0 24 24;" xml:space="preserve">
<path d="M19.5,3.7h-15c-0.2,0-0.4,0.1-0.6,0.2C3.8,4.1,3.7,4.3,3.7,4.5v15c0,0.2,0.1,0.4,0.2,0.6c0.2,0.2,0.4,0.2,0.6,0.2h15c0.2,0,0.4-0.1,0.6-0.2s0.2-0.4,0.2-0.6v-15c0-0.2-0.1-0.4-0.2-0.6S19.7,3.7,19.5,3.7z M8.7,18.7H5.3v-3.3h3.3V18.7z M8.7,13.7H5.3v-3.3h3.3V13.7z M8.7,8.7H5.3V5.3h3.3V8.7z M13.7,18.7h-3.3v-3.3h3.3V18.7z M13.7,13.7h-3.3v-3.3h3.3V13.7z M13.7,8.7h-3.3V5.3h3.3V8.7z M18.7,18.7h-3.3v-3.3h3.3V18.7z M18.7,13.7h-3.3v-3.3h3.3V13.7z M18.7,8.7h-3.3V5.3h3.3V8.7z"/>
</svg>
