<svg width="55" height="60" viewBox="0 0 55 60" fill="none" xmlns="http://www.w3.org/2000/svg">
<path d="M36.5411 49.2403C33.1144 50.2027 29.6136 50.5481 26.0704 50.4578C22.9338 50.3741 19.8396 49.9435 16.8511 48.9568C11.2698 47.113 6.78943 43.8125 3.68612 38.731C1.91826 35.8402 0.818966 32.7028 0.311725 29.3656C-0.136768 26.4154 -0.101091 23.4112 0.417333 20.4726C1.23391 15.7757 3.15393 11.619 6.34622 8.08691C8.54648 5.65191 11.1966 3.83402 14.1868 2.50531C16.0167 1.69321 17.9308 1.08826 19.8937 0.701637C23.2518 0.0380024 26.6849 -0.156156 30.0959 0.124663C32.2113 0.296083 34.2985 0.603802 36.3441 1.16656C40.9018 2.42085 44.8782 4.66771 48.0688 8.21903C50.378 10.7903 51.9928 13.758 53.0256 17.0626C53.9819 20.1231 54.3469 23.2505 54.2172 26.4464C54.0784 29.884 53.3241 33.1786 51.8889 36.3135C51.8582 36.4044 51.8373 36.4983 51.8265 36.5936C50.5388 36.5975 49.251 36.6017 47.9632 36.6062C47.6065 36.6062 47.2581 36.6196 46.9063 36.4724C46.5139 36.3095 46.1035 36.1944 45.6839 36.1296C44.3622 35.9105 43.0151 35.8936 41.6884 36.0794C40.456 36.2617 39.2844 36.5594 38.1735 37.1196C36.5037 37.9608 35.6098 39.3539 35.3853 41.1752C35.2885 42.0474 35.3926 42.9304 35.6897 43.7557C36.2019 45.2491 37.2164 46.2233 38.6416 46.8312C38.9659 46.97 39.3701 46.919 39.6395 47.2117C39.4998 47.3722 39.3135 47.3538 39.1672 47.404C38.1178 47.7652 37.2712 48.4149 36.5411 49.2403ZM36.8871 25.1344C36.8969 23.1474 36.7828 21.1617 36.5453 19.1891C36.2376 16.5893 35.7578 14.0289 34.8681 11.5621C34.2411 9.82118 33.4428 8.17053 32.193 6.77743C29.9961 4.32905 26.7697 3.69522 24.0015 5.20622C22.4598 6.04743 21.4046 7.38033 20.5781 8.89635C18.915 11.9568 18.2082 15.3058 17.7591 18.7183C17.4347 21.2731 17.3083 23.8493 17.3808 26.4238C17.414 27.8454 17.4905 29.2619 17.6361 30.6734C17.8179 32.527 18.1297 34.3653 18.569 36.1747C19.068 38.1732 19.7016 40.1207 20.7635 41.8943C22.0565 44.055 23.7338 45.709 26.3847 46.0151C28.5043 46.2592 30.3154 45.5518 31.8255 44.1144C32.682 43.2983 33.3314 42.2865 33.8719 41.2203C35.0926 38.8096 35.7653 36.2316 36.2168 33.58C36.686 30.79 36.9102 27.9639 36.8871 25.1344ZM10.5206 21.594C10.3185 21.3431 10.153 21.0806 9.80876 21.0513C9.3821 21.0061 8.95158 21.0128 8.52652 21.0714C8.33384 21.1023 8.15647 21.1956 8.02138 21.3372C7.88629 21.4788 7.80088 21.6608 7.77814 21.8557C7.69498 22.4369 7.74155 23.0264 7.72658 23.6067C7.72159 23.7965 7.80974 23.8408 7.97604 23.8358C8.27956 23.8266 8.58307 23.8358 8.89074 23.8358C10.3135 23.8358 11.7363 23.8258 13.159 23.8358C13.6862 23.8358 13.4551 23.4604 13.5025 23.2195C13.5632 22.9143 13.3885 22.8851 13.1432 22.8851C12.5612 22.8976 11.9791 22.8658 11.397 22.8976C11.0012 22.9185 10.9555 22.7262 11.0037 22.4176C11.0461 22.1517 11.2024 22.0455 11.4669 22.0497C11.9791 22.0581 12.4913 22.0589 13.0027 22.0497C13.3353 22.043 13.5499 21.9243 13.5066 21.5212C13.4847 21.2028 13.4819 20.8834 13.4983 20.5646C13.5091 19.7903 13.5158 19.7569 12.7616 19.6615C12.2626 19.5988 12.473 19.2602 12.4289 19.0126C12.3791 18.7216 12.498 18.5845 12.7982 18.5511C13.5233 18.4674 13.5133 18.4599 13.5075 17.7717C13.5075 17.5209 13.4401 17.4674 13.1906 17.5159C11.6589 17.8119 10.1239 18.0886 8.59055 18.3738C7.53532 18.5778 7.75236 18.327 7.72575 19.4475C7.72575 19.6289 7.76566 19.71 7.96523 19.7443C8.82339 19.8906 9.67655 20.0621 10.5322 20.2218C11.4411 20.389 12.3508 20.5563 13.2605 20.7302C13.3229 20.7419 13.421 20.7302 13.4143 20.8222C13.4143 20.8782 13.3486 20.9351 13.3037 20.9836C13.2064 21.0864 13.0742 21.0672 12.952 21.0672C12.5088 21.073 12.0647 21.0923 11.6215 21.0672C11.1625 21.0463 10.7875 21.17 10.5206 21.594ZM10.1389 14.1109C10.1389 14.0783 10.143 14.0448 10.1447 14.0122H10.7052C11.5217 14.0122 12.3391 13.9921 13.1549 14.0197C13.6605 14.0364 13.4684 13.6852 13.5 13.4511C13.5349 13.2002 13.5208 13.0146 13.1532 13.0205C11.728 13.0422 10.3019 13.0205 8.87577 13.0297C8.50656 13.0297 8.02178 12.8683 7.79476 13.0991C7.56775 13.3299 7.75486 13.8157 7.72159 14.1861C7.69914 14.437 7.77814 14.5407 8.04839 14.5775C9.10195 14.7238 10.1464 14.8986 11.1983 15.0658C10.3933 15.2556 9.5884 15.3693 8.7868 15.5031C7.65091 15.6929 7.65839 15.6988 7.7191 16.8895C7.73074 17.1111 7.80641 17.173 8.01512 17.1713C9.73059 17.1596 11.4469 17.1488 13.1632 17.1513C13.6921 17.1513 13.4501 16.7675 13.4958 16.5291C13.5615 16.2147 13.3669 16.203 13.1316 16.2047C12.0032 16.2114 10.874 16.2047 9.74556 16.2047C10.8814 15.963 12.0215 15.7749 13.164 15.601C13.4093 15.5642 13.5133 15.4847 13.5058 15.2105C13.49 14.6025 13.5058 14.6051 12.9004 14.5415C12.7216 14.5231 12.5454 14.4872 12.3674 14.4579L10.1389 14.1109ZM9.6807 9.34455L9.67073 9.29104C10.8058 9.29104 11.9408 9.28184 13.0751 9.29772C13.3827 9.29772 13.5474 9.24504 13.5058 8.89384C13.475 8.62793 13.6147 8.32272 13.1116 8.33443C11.6864 8.3662 10.2603 8.34363 8.83419 8.34279C7.65008 8.34279 7.65507 8.34279 7.72242 9.54607C7.73489 9.76516 7.79643 9.84711 8.0251 9.88055C9.09114 10.0319 10.153 10.2092 11.2531 10.3823C11.0817 10.4648 10.8958 10.5129 10.706 10.5236C10.0632 10.6147 9.41544 10.685 8.78014 10.8112C8.43672 10.8798 7.95359 10.736 7.78229 11.0504C7.62846 11.3305 7.74654 11.7561 7.72242 12.1157C7.70413 12.3883 7.79893 12.4702 8.07417 12.4677C9.76303 12.4552 11.4519 12.4435 13.1407 12.4677C13.6397 12.4761 13.4675 12.155 13.5025 11.9175C13.5465 11.6173 13.4434 11.5044 13.1191 11.5095C11.9134 11.5287 10.7077 11.517 9.50192 11.517C10.7359 11.2887 11.9708 11.0763 13.2106 10.8982C13.6189 10.8397 13.4817 10.5637 13.5008 10.3455C13.5216 10.1105 13.5216 9.91985 13.1965 9.87386C12.0215 9.71415 10.8515 9.52684 9.6807 9.34706V9.34455ZM10.5954 39.6274L10.6029 39.6951C9.85449 39.9234 9.10611 40.1416 8.36271 40.385C7.69748 40.6024 7.71161 40.6149 7.71743 41.319C7.71743 41.5464 7.78229 41.6309 8.02427 41.6292C9.75388 41.6192 11.4835 41.6225 13.2139 41.6209C13.3071 41.6209 13.4534 41.6576 13.4767 41.5581C13.5447 41.2875 13.5418 41.0037 13.4684 40.7345C13.4168 40.5597 13.1998 40.655 13.0584 40.6509C12.2527 40.6433 11.4469 40.6509 10.6411 40.6509C10.6567 40.6067 10.6828 40.5671 10.7172 40.5354C10.7515 40.5038 10.7931 40.4811 10.8382 40.4694C11.6332 40.2403 12.4289 40.0126 13.2256 39.7862C13.7503 39.6366 13.4393 39.2101 13.4917 38.9149C13.544 38.6197 13.2688 38.6925 13.11 38.6917C11.4228 38.6858 9.73475 38.6983 8.04756 38.68C7.60268 38.6758 7.74404 38.9743 7.72991 39.1892C7.71577 39.4041 7.67336 39.6508 8.06252 39.6366C8.89905 39.609 9.74722 39.6299 10.5912 39.6299L10.5954 39.6274ZM12.9736 25.1269C13.6023 25.239 13.4908 24.8995 13.5058 24.6394C13.5274 24.2798 13.2671 24.3735 13.0784 24.371C12.5246 24.3643 11.9699 24.3568 11.4153 24.371C11.0453 24.3793 10.5596 24.2037 10.3343 24.4479C10.1089 24.6921 10.2877 25.1654 10.2736 25.535C10.2736 25.5626 10.2736 25.591 10.2736 25.6186C10.242 25.9029 10.4399 25.9071 10.6212 25.8778C10.8025 25.8485 11.1051 26.045 11.1043 25.6336C11.1043 25.5074 11.0511 25.3251 11.2706 25.3268C11.644 25.3268 12.019 25.3268 12.3882 25.3644C12.6277 25.3903 12.7923 25.5458 12.7557 25.8251C12.7233 26.076 12.5894 26.2432 12.3242 26.2432C11.1742 26.2432 10.025 26.2432 8.87577 26.2432C8.60801 26.2432 8.51156 26.0634 8.49077 25.8402C8.46998 25.6169 8.52486 25.4154 8.79095 25.3727C8.95278 25.3407 9.11747 25.3256 9.28239 25.3276C9.50525 25.3385 9.62333 25.2799 9.59589 25.0299C9.58383 24.8771 9.58383 24.7236 9.59589 24.5708C9.60254 24.4329 9.55098 24.3819 9.41128 24.3593C8.40345 24.1979 7.77897 24.6536 7.63844 25.6646C7.52701 26.4623 8.04839 27.1873 8.8317 27.2124C10.0349 27.25 11.2432 27.2433 12.4456 27.2124C12.9379 27.2007 13.3811 26.9849 13.5332 26.4598C13.6746 25.9731 13.6264 25.499 12.9736 25.1269ZM10.1938 38.1816C10.8864 38.1816 11.5791 38.1816 12.2726 38.1816C12.6269 38.1816 12.9819 38.1314 13.2197 37.8471C13.6804 37.2869 13.6929 36.6513 13.4351 36.0008C13.2048 35.4196 12.7192 35.2833 12.1545 35.2858C10.8241 35.2909 9.49361 35.2984 8.16314 35.2808C7.83052 35.2758 7.67835 35.3519 7.71993 35.714C7.75319 36.005 7.64259 36.3035 8.16064 36.2851C9.46117 36.2399 10.7642 36.2667 12.0689 36.2717C12.2552 36.2717 12.463 36.2266 12.6152 36.398C12.7566 36.556 12.8131 36.7417 12.7283 36.9373C12.6343 37.1531 12.4439 37.2174 12.2161 37.2166C10.9272 37.2166 9.63829 37.2166 8.35107 37.2166C7.69914 37.2166 7.71411 37.2166 7.72492 37.8714C7.72492 38.1456 7.84216 38.1891 8.07583 38.1858C8.77931 38.1741 9.48529 38.1816 10.1921 38.1816H10.1938ZM10.5821 31.931C11.4535 31.931 12.3283 31.9252 13.1965 31.9352C13.4235 31.9352 13.5124 31.875 13.5066 31.6308C13.4917 30.9778 13.4933 30.3239 13.5066 29.67C13.5124 29.2836 13.233 29.4475 13.0659 29.4341C12.8988 29.4208 12.6551 29.3355 12.6759 29.68C12.6942 29.9844 12.6601 30.2929 12.6817 30.5998C12.7034 30.9067 12.5803 30.9661 12.2984 30.9627C10.9679 30.9485 9.64245 30.956 8.31448 30.9569C7.7141 30.9569 7.7324 30.9569 7.72076 31.5706C7.71577 31.8633 7.80392 31.9461 8.09495 31.9394C8.91984 31.9176 9.75055 31.9302 10.5804 31.931H10.5821ZM10.637 34.7741C11.481 34.7741 12.325 34.7674 13.169 34.7741C13.4035 34.7741 13.5183 34.7406 13.5083 34.4613C13.4867 33.8359 13.4825 33.2071 13.5083 32.5841C13.5241 32.2245 13.317 32.2563 13.0925 32.2563C12.868 32.2563 12.6385 32.222 12.6767 32.5824C12.7025 32.8575 12.6634 33.1393 12.6884 33.4186C12.7158 33.7188 12.6052 33.7932 12.315 33.7899C10.918 33.7757 9.52021 33.7899 8.12322 33.779C7.84383 33.779 7.70746 33.8409 7.74238 34.1419C7.74957 34.239 7.74594 34.3366 7.73157 34.4329C7.70662 34.6838 7.78313 34.7908 8.07001 34.7833C8.91984 34.7565 9.77799 34.7707 10.6353 34.7707L10.637 34.7741Z" fill="#77B72B"/>
<path d="M36.5414 49.2398C37.2715 48.4145 38.1214 47.7647 39.1724 47.4001C39.3188 47.35 39.505 47.3684 39.6447 47.2078C39.372 46.9152 38.9679 46.9662 38.6469 46.8274C37.2216 46.2194 36.2072 45.2453 35.6949 43.7518C35.3979 42.9265 35.2937 42.0436 35.3906 41.1713C35.6151 39.3501 36.509 37.957 38.1787 37.1158C39.2897 36.5555 40.4613 36.2578 41.6937 36.0756C43.0204 35.8897 44.3675 35.9066 45.6892 36.1257C46.1088 36.1906 46.5192 36.3057 46.9116 36.4686C47.2633 36.6157 47.6117 36.6032 47.9685 36.6024C49.2557 36.6024 50.5435 36.5982 51.8318 36.5898C52.1985 36.6166 52.6858 36.4226 52.897 36.6868C53.0766 36.9084 52.9619 37.3775 52.9635 37.7371C52.9635 38.702 52.9635 38.6954 51.9832 38.7054C51.4585 38.7112 50.9321 38.6694 50.4032 38.738C50.1654 38.7698 50.1197 38.8082 50.2818 39.0323C51.1541 40.2323 51.3495 41.6187 51.1333 43.026C50.898 44.5613 49.9949 45.7018 48.6478 46.4695C46.8392 47.4988 44.8677 47.7296 42.8337 47.6443C42.654 47.6339 42.4738 47.6339 42.294 47.6443C41.9182 47.6719 41.5614 47.9688 41.5265 48.269C41.4916 48.5691 41.7519 48.866 42.1427 48.9806C42.4213 49.058 42.7093 49.0958 42.9984 49.0926C44.2997 49.0968 45.6019 49.06 46.9016 49.1511C48.3817 49.2548 49.817 49.5642 51.0859 50.362C52.4887 51.2433 53.0983 52.72 52.8879 54.4551C52.6825 56.1534 51.9283 57.4654 50.5105 58.3995C49.7217 58.9168 48.8495 59.2923 47.9327 59.5091C46.316 59.8909 44.6553 60.0512 42.9959 59.9857C41.3677 59.9289 39.737 59.8252 38.1671 59.3352C37.4129 59.0994 36.6811 58.79 36.1074 58.203C34.959 57.0323 35.1303 55.4025 36.7992 54.665C37.4313 54.3727 38.107 54.1871 38.7991 54.1156C38.3916 53.7954 37.9509 53.7469 37.5867 53.5303C36.2047 52.7 35.6966 50.8971 36.4841 49.4781C36.5137 49.4016 36.533 49.3214 36.5414 49.2398ZM43.6927 54.5287C43.2927 54.5287 42.8611 54.5379 42.4354 54.5287C41.9627 54.5156 41.5042 54.6912 41.1598 55.0171C40.4239 55.6751 40.2451 56.6058 41.1024 57.3509C41.5897 57.7757 42.1834 57.9295 42.7971 57.9981C43.4997 58.0733 44.2083 58.0733 44.9109 57.9981C45.6052 57.927 46.2796 57.7564 46.8816 57.3484C47.433 56.9746 47.8604 56.0255 47.4978 55.4485C47.1843 54.9468 46.6663 54.7904 46.1549 54.696C45.3454 54.5246 44.516 54.4684 43.691 54.5287H43.6927ZM42.0296 41.954C42.0296 42.2333 42.0146 42.5126 42.0296 42.7902C42.0837 43.6465 42.1577 44.4986 42.5152 45.2988C42.7298 45.7779 43.4499 46.1617 43.795 45.9134C44.111 45.6859 44.3887 45.4117 44.5317 45.0003C44.8311 44.1365 44.8993 43.2443 44.9234 42.3495C44.9508 41.3244 44.9234 40.3042 44.7097 39.2874C44.6227 38.8292 44.4392 38.3949 44.1717 38.0139C43.8914 37.6242 43.5239 37.5514 43.0907 37.763C42.4495 38.0707 42.2932 38.728 42.2234 39.3033C42.1144 40.1754 41.8982 41.0568 42.0254 41.954H42.0296Z" fill="#F9BD10"/>
<path d="M10.5207 21.5936C10.7877 21.1696 11.1627 21.0459 11.6234 21.0701C12.0649 21.0935 12.5089 21.0743 12.9538 21.0701C13.0761 21.0701 13.2083 21.0877 13.3056 20.9865C13.3505 20.938 13.412 20.8811 13.4162 20.8251C13.4228 20.7323 13.3247 20.7415 13.2623 20.7331C12.3526 20.5659 11.4429 20.3987 10.534 20.2247C9.67838 20.065 8.82521 19.8902 7.96706 19.7473C7.76749 19.713 7.72342 19.6319 7.72758 19.4504C7.75253 18.3266 7.5355 18.5774 8.59322 18.3759C10.1266 18.0908 11.6616 17.814 13.1933 17.518C13.4428 17.4695 13.5076 17.5246 13.5101 17.7738C13.5159 18.462 13.5259 18.4721 12.8008 18.5532C12.5006 18.5866 12.385 18.7204 12.4316 19.0147C12.4732 19.2656 12.2603 19.6001 12.7642 19.6636C13.5184 19.759 13.5126 19.7924 13.501 20.5667C13.4846 20.8855 13.4874 21.2049 13.5093 21.5233C13.5525 21.9264 13.3372 22.0451 13.0054 22.0518C12.494 22.0618 11.9817 22.061 11.4695 22.0518C11.2051 22.0476 11.0488 22.1538 11.0064 22.4197C10.9581 22.7283 11.0063 22.9215 11.3997 22.8997C11.9817 22.8679 12.5638 22.8997 13.1459 22.8872C13.3954 22.8822 13.5617 22.9139 13.5051 23.2216C13.4577 23.4625 13.6889 23.8421 13.1617 23.8379C11.7389 23.8271 10.3162 23.8379 8.8934 23.8379C8.58906 23.8379 8.28555 23.8287 7.97871 23.8379C7.8124 23.8429 7.72093 23.7986 7.72924 23.6088C7.74421 23.0235 7.69681 22.4381 7.7808 21.8578C7.80355 21.6629 7.88896 21.4809 8.02404 21.3393C8.15913 21.1977 8.3365 21.1044 8.52919 21.0735C8.95424 21.0149 9.38476 21.0082 9.81142 21.0534C10.1532 21.0802 10.3187 21.3369 10.5207 21.5936ZM9.34826 21.974C9.27924 21.974 9.21022 21.974 9.1412 21.974C8.65059 21.9916 8.60319 22.0736 8.56411 22.51C8.51754 23.0302 8.86263 22.8813 9.12124 22.8905C9.35574 22.8997 9.59023 22.8847 9.82473 22.8964C10.0093 22.9047 10.0925 22.8562 10.1033 22.6455C10.1324 22.0894 10.0384 21.9958 9.34826 21.974ZM9.56446 19.0791L9.54034 19.1427C10.1341 19.2397 10.7275 19.3364 11.3207 19.4328C11.408 19.4471 11.5327 19.5273 11.5701 19.4002C11.6324 19.2015 11.6301 18.988 11.5635 18.7906C11.5227 18.6719 11.3972 18.7631 11.3082 18.7781C10.7289 18.879 10.1476 18.9793 9.56446 19.0791Z" fill="#FEFEFE"/>
<path d="M10.1398 14.1111L12.3708 14.4598C12.5488 14.4874 12.7251 14.5233 12.9039 14.5434C13.5109 14.6069 13.4934 14.6044 13.5092 15.2123C13.5167 15.4866 13.4128 15.566 13.1675 15.6028C12.0249 15.7768 10.8849 15.9649 9.749 16.2066C10.8774 16.2066 12.0066 16.2066 13.135 16.2066C13.3704 16.2066 13.5649 16.2166 13.4992 16.531C13.4502 16.7693 13.6922 17.154 13.1666 17.1531C11.4503 17.1531 9.73403 17.1615 8.01856 17.1732C7.80984 17.1732 7.73417 17.113 7.72253 16.8914C7.66183 15.7007 7.65434 15.6948 8.79023 15.505C9.59267 15.3712 10.3976 15.2541 11.2017 15.0677C10.1523 14.9004 9.10538 14.729 8.05432 14.5844C7.78407 14.5476 7.70507 14.4472 7.72752 14.193C7.76078 13.8209 7.57618 13.3351 7.8007 13.106C8.02521 12.8768 8.51 13.0382 8.8817 13.0366C10.3078 13.0299 11.7339 13.0491 13.1591 13.0274C13.5267 13.0215 13.5408 13.203 13.5059 13.458C13.4743 13.6913 13.6664 14.0433 13.1608 14.0266C12.3451 13.999 11.5277 14.0191 10.7111 14.0191H10.1473C10.1473 14.045 10.1415 14.0785 10.1398 14.1111Z" fill="#FEFEFE"/>
<path d="M9.68226 9.34646C10.8531 9.52624 12.023 9.71606 13.1964 9.87912C13.5215 9.92511 13.5215 10.1158 13.5007 10.3507C13.4816 10.5732 13.6188 10.8449 13.2105 10.9035C11.9707 11.0816 10.7358 11.294 9.50182 11.5222C10.7075 11.5222 11.9133 11.5339 13.119 11.5147C13.4433 11.5097 13.5464 11.6226 13.5024 11.9228C13.4674 12.1603 13.6404 12.4814 13.1415 12.473C11.4526 12.4454 9.76375 12.4571 8.07489 12.473C7.79965 12.473 7.70486 12.3936 7.72315 12.121C7.74727 11.7614 7.62919 11.3358 7.78302 11.0556C7.95598 10.7412 8.43911 10.8884 8.78087 10.8165C9.41617 10.6902 10.0639 10.62 10.7067 10.5288C10.8965 10.5181 11.0824 10.4701 11.2539 10.3875C10.1537 10.2136 9.09187 10.0363 8.02583 9.88581C7.79716 9.8532 7.73563 9.77125 7.72315 9.55133C7.6558 8.34804 7.65081 8.34804 8.83492 8.34804C10.261 8.34804 11.6871 8.37146 13.1124 8.33968C13.6155 8.32798 13.4758 8.63319 13.5065 8.8991C13.5481 9.2503 13.3835 9.30716 13.0758 9.30298C11.9416 9.28709 10.8065 9.29629 9.67145 9.29629L9.68226 9.34646Z" fill="#FEFEFE"/>
<path d="M10.5921 39.6301C9.74808 39.6301 8.90323 39.6092 8.06088 39.6393C7.67006 39.6535 7.71164 39.4194 7.72827 39.1919C7.7449 38.9645 7.60104 38.6785 8.04592 38.6827C9.73311 38.7011 11.4211 38.6885 13.1083 38.6944C13.2672 38.6944 13.5407 38.6266 13.49 38.9176C13.4393 39.2086 13.7486 39.6393 13.2239 39.7889C12.4279 40.0164 11.6321 40.2441 10.8366 40.4721C10.7911 40.4836 10.7492 40.5061 10.7146 40.5378C10.6799 40.5694 10.6535 40.6092 10.6378 40.6536C11.4436 40.6536 12.2494 40.6494 13.0551 40.6536C13.1965 40.6536 13.4135 40.5591 13.4651 40.7372C13.5385 41.0064 13.5414 41.2902 13.4734 41.5608C13.4501 41.6604 13.3071 41.6236 13.2106 41.6236C11.4802 41.6236 9.75058 41.6236 8.02097 41.6319C7.77899 41.6319 7.71663 41.5483 7.71413 41.3217C7.70831 40.6176 7.69667 40.6051 8.35941 40.3877C9.10197 40.1443 9.85618 39.9261 10.5996 39.6978L10.5921 39.6301Z" fill="#FEFEFE"/>
<path d="M12.974 25.1264C13.6284 25.4985 13.6767 25.9726 13.5328 26.4643C13.3806 26.9869 12.9374 27.2027 12.4452 27.2169C11.2411 27.2436 10.0337 27.2503 8.83129 27.2169C8.04797 27.1918 7.5266 26.4643 7.63803 25.6691C7.77856 24.6581 8.40304 24.2024 9.41087 24.3638C9.55057 24.3864 9.60212 24.4374 9.59547 24.5753C9.58341 24.7281 9.58341 24.8816 9.59547 25.0344C9.62291 25.2853 9.50483 25.343 9.28198 25.3321C9.11706 25.3301 8.95237 25.3452 8.79054 25.3773C8.52445 25.4199 8.46957 25.6231 8.49036 25.8447C8.51114 26.0663 8.6076 26.2477 8.87536 26.2477C10.0245 26.2477 11.1737 26.2477 12.3238 26.2477C12.5882 26.2477 12.7229 26.0855 12.7553 25.8296C12.7919 25.5504 12.6273 25.3948 12.3878 25.3689C12.0186 25.3288 11.6394 25.3346 11.2702 25.3313C11.0473 25.3313 11.1039 25.5119 11.1039 25.6382C11.1039 26.0479 10.7995 25.8531 10.6208 25.8823C10.442 25.9116 10.2416 25.9074 10.2732 25.6231C10.2732 25.5955 10.2732 25.5671 10.2732 25.5395C10.2873 25.1665 10.116 24.6849 10.3339 24.4524C10.5517 24.22 11.044 24.3839 11.4149 24.3755C11.9687 24.3621 12.5233 24.3696 13.078 24.3755C13.2667 24.3755 13.527 24.2844 13.5054 24.6439C13.4896 24.899 13.601 25.2385 12.974 25.1264Z" fill="#FEFEFE"/>
<path d="M10.1913 38.1818C9.48448 38.1818 8.77767 38.1742 8.07169 38.1859C7.83803 38.1859 7.72494 38.1458 7.72079 37.8715C7.70998 37.2168 7.69501 37.2176 8.34693 37.2168C9.63499 37.2168 10.9247 37.2109 12.2119 37.2168C12.4398 37.2168 12.6277 37.1532 12.7242 36.9375C12.8073 36.7418 12.7524 36.5562 12.6111 36.3981C12.4589 36.2309 12.251 36.2727 12.0648 36.2719C10.7626 36.2669 9.45954 36.2401 8.15651 36.2853C7.63846 36.3037 7.74906 36.0051 7.7158 35.7141C7.67422 35.3521 7.82306 35.276 8.15901 35.281C9.48947 35.2985 10.8199 35.291 12.1504 35.286C12.715 35.286 13.2006 35.4198 13.431 36.001C13.6888 36.6515 13.6804 37.287 13.2156 37.8473C12.9778 38.1349 12.6227 38.1818 12.2685 38.1818C11.5766 38.1834 10.884 38.1818 10.1913 38.1818Z" fill="#FEFEFE"/>
<path d="M10.5808 31.9298C9.74927 31.9298 8.91774 31.9172 8.09119 31.9364C7.80181 31.9431 7.712 31.8604 7.71699 31.5677C7.72614 30.9539 7.71034 30.9539 8.31071 30.9539C9.64117 30.9539 10.9667 30.9456 12.2946 30.9598C12.5765 30.9598 12.6988 30.8987 12.678 30.5969C12.6572 30.295 12.6904 29.9839 12.6721 29.677C12.6514 29.3325 12.8925 29.417 13.0621 29.4312C13.2318 29.4454 13.5087 29.2807 13.5029 29.667C13.492 30.3209 13.4904 30.9748 13.5029 31.6279C13.5087 31.8721 13.4197 31.9348 13.1927 31.9323C12.3237 31.9247 11.4523 31.9306 10.5808 31.9298Z" fill="#FEFEFE"/>
<path d="M10.6344 34.77C9.77707 34.77 8.91892 34.7557 8.0616 34.7775C7.77472 34.785 7.69822 34.6813 7.72317 34.4271C7.73754 34.3308 7.74116 34.2332 7.73398 34.1361C7.69822 33.8351 7.83543 33.7707 8.11482 33.7732C9.51181 33.7858 10.9096 33.7732 12.3066 33.7841C12.596 33.7841 12.7074 33.713 12.68 33.4128C12.655 33.1369 12.6941 32.8551 12.6683 32.5766C12.6342 32.2162 12.8621 32.2513 13.0841 32.2505C13.3061 32.2497 13.519 32.2187 13.4999 32.5783C13.4724 33.2029 13.4766 33.8326 13.4999 34.4556C13.5099 34.7348 13.3951 34.7716 13.1606 34.7683C12.3166 34.7574 11.4726 34.7683 10.6286 34.7683L10.6344 34.77Z" fill="#FEFEFE"/>
<path d="M42.0253 41.9546C41.898 41.0573 42.1142 40.176 42.2207 39.3005C42.2905 38.7252 42.4469 38.0679 43.088 37.7602C43.522 37.5512 43.8896 37.6239 44.169 38.0111C44.4365 38.3922 44.62 38.8264 44.707 39.2846C44.919 40.3014 44.9481 41.3216 44.9207 42.3467C44.8966 43.2423 44.8284 44.1337 44.529 44.9975C44.386 45.4097 44.1083 45.6832 43.7923 45.9106C43.4472 46.1615 42.7271 45.7751 42.5126 45.296C42.155 44.4966 42.081 43.6445 42.0269 42.7874C42.0103 42.5131 42.0253 42.2339 42.0253 41.9546Z" fill="#77B72B"/>
<path d="M9.34895 21.9741C10.0391 21.9958 10.1331 22.0878 10.104 22.6472C10.0932 22.8562 10.01 22.9047 9.82542 22.898C9.59093 22.8863 9.35643 22.898 9.12194 22.8922C8.86333 22.883 8.51824 23.0318 8.56481 22.5117C8.60389 22.0752 8.64796 21.9933 9.1419 21.9757C9.21091 21.9724 9.27994 21.9741 9.34895 21.9741Z" fill="#77B72B"/>
<path d="M9.56459 19.0791C10.1467 18.9782 10.7287 18.8778 11.3108 18.7781C11.3981 18.763 11.5254 18.6719 11.5661 18.7906C11.6327 18.9879 11.635 19.2015 11.5728 19.4002C11.5328 19.5273 11.4065 19.447 11.3233 19.4328C10.7296 19.3375 10.1361 19.2408 9.54297 19.1426L9.56459 19.0791Z" fill="#77B72B"/>
</svg>
