<svg width="10" height="10" viewBox="0 0 10 10" fill="none" xmlns="http://www.w3.org/2000/svg">
<path d="M5.83268 3.74984H4.16602C4.05551 3.74984 3.94953 3.79374 3.87139 3.87188C3.79325 3.95002 3.74935 4.056 3.74935 4.1665V9.1665C3.74935 9.27701 3.79325 9.38299 3.87139 9.46113C3.94953 9.53927 4.05551 9.58317 4.16602 9.58317H5.83268C5.94319 9.58317 6.04917 9.53927 6.12731 9.46113C6.20545 9.38299 6.24935 9.27701 6.24935 9.1665V4.1665C6.24935 4.056 6.20545 3.95002 6.12731 3.87188C6.04917 3.79374 5.94319 3.74984 5.83268 3.74984ZM5.41602 8.74984H4.58268V4.58317H5.41602V8.74984ZM9.16601 0.416504H7.49935C7.38884 0.416504 7.28286 0.460403 7.20472 0.538543C7.12658 0.616683 7.08268 0.722664 7.08268 0.833171V9.1665C7.08268 9.27701 7.12658 9.38299 7.20472 9.46113C7.28286 9.53927 7.38884 9.58317 7.49935 9.58317H9.16601C9.27652 9.58317 9.3825 9.53927 9.46064 9.46113C9.53878 9.38299 9.58268 9.27701 9.58268 9.1665V0.833171C9.58268 0.722664 9.53878 0.616683 9.46064 0.538543C9.3825 0.460403 9.27652 0.416504 9.16601 0.416504ZM8.74935 8.74984H7.91601V1.24984H8.74935V8.74984ZM2.49935 6.24984H0.832682C0.722175 6.24984 0.616195 6.29374 0.538054 6.37188C0.459914 6.45002 0.416016 6.556 0.416016 6.6665V9.1665C0.416016 9.27701 0.459914 9.38299 0.538054 9.46113C0.616195 9.53927 0.722175 9.58317 0.832682 9.58317H2.49935C2.60986 9.58317 2.71584 9.53927 2.79398 9.46113C2.87212 9.38299 2.91602 9.27701 2.91602 9.1665V6.6665C2.91602 6.556 2.87212 6.45002 2.79398 6.37188C2.71584 6.29374 2.60986 6.24984 2.49935 6.24984ZM2.08268 8.74984H1.24935V7.08317H2.08268V8.74984Z"/>
</svg>
