<svg width="10" height="10" viewBox="0 0 10 10" fill="none" xmlns="http://www.w3.org/2000/svg">
<path d="M4.16732 3.74984H5.83398C5.94449 3.74984 6.05047 3.79374 6.12861 3.87188C6.20675 3.95002 6.25065 4.056 6.25065 4.1665V9.1665C6.25065 9.27701 6.20675 9.38299 6.12861 9.46113C6.05047 9.53927 5.94449 9.58317 5.83398 9.58317H4.16732C4.05681 9.58317 3.95083 9.53927 3.87269 9.46113C3.79455 9.38299 3.75065 9.27701 3.75065 9.1665V4.1665C3.75065 4.056 3.79455 3.95002 3.87269 3.87188C3.95083 3.79374 4.05681 3.74984 4.16732 3.74984ZM4.58398 8.74984H5.41732V4.58317H4.58398V8.74984ZM0.833985 0.416504H2.50065C2.61116 0.416504 2.71714 0.460403 2.79528 0.538543C2.87342 0.616683 2.91732 0.722664 2.91732 0.833171V9.1665C2.91732 9.27701 2.87342 9.38299 2.79528 9.46113C2.71714 9.53927 2.61116 9.58317 2.50065 9.58317H0.833985C0.723478 9.58317 0.617497 9.53927 0.539357 9.46113C0.461217 9.38299 0.417318 9.27701 0.417318 9.1665V0.833171C0.417318 0.722664 0.461217 0.616683 0.539357 0.538543C0.617497 0.460403 0.723478 0.416504 0.833985 0.416504ZM1.25065 8.74984H2.08399V1.24984H1.25065V8.74984ZM7.50065 6.24984H9.16732C9.27782 6.24984 9.38381 6.29374 9.46195 6.37188C9.54009 6.45002 9.58398 6.556 9.58398 6.6665V9.1665C9.58398 9.27701 9.54009 9.38299 9.46195 9.46113C9.38381 9.53927 9.27782 9.58317 9.16732 9.58317H7.50065C7.39014 9.58317 7.28416 9.53927 7.20602 9.46113C7.12788 9.38299 7.08398 9.27701 7.08398 9.1665V6.6665C7.08398 6.556 7.12788 6.45002 7.20602 6.37188C7.28416 6.29374 7.39014 6.24984 7.50065 6.24984ZM7.91732 8.74984H8.75065V7.08317H7.91732V8.74984Z"/>
</svg>
