<?xml version="1.0" encoding="utf-8"?>
<!-- Generator: Adobe Illustrator 19.2.1, SVG Export Plug-In . SVG Version: 6.00 Build 0)  -->
<svg version="1.1" id="Слой_1" xmlns="http://www.w3.org/2000/svg" xmlns:xlink="http://www.w3.org/1999/xlink" x="0px" y="0px"
	 viewBox="0 0 32 32" style="enable-background:new 0 0 32 32;" xml:space="preserve">
<g>
	<path d="M22.7,1.1H9.3c-4.5,0-8.2,3.7-8.2,8.2v13.4c0,4.5,3.7,8.2,8.2,8.2h13.4c4.5,0,8.2-3.7,8.2-8.2V9.3C30.9,4.8,27.2,1.1,22.7,1.1z M28.3,22.7c0,3.1-2.5,5.6-5.6,5.6H9.3c-3.1,0-5.6-2.5-5.6-5.6V9.3c0-3.1,2.5-5.6,5.6-5.6h13.4c3.1,0,5.6,2.5,5.6,5.6L28.3,22.7L28.3,22.7z"/>
	<path d="M16,8.3c-4.2,0-7.7,3.5-7.7,7.7c0,4.2,3.5,7.7,7.7,7.7c4.2,0,7.7-3.5,7.7-7.7C23.7,11.8,20.2,8.3,16,8.3z M16,21c-2.8,0-5-2.3-5-5c0-2.8,2.3-5,5-5c2.8,0,5,2.3,5,5C21,18.8,18.8,21,16,21z"/>
	<path d="M24,6.1c-0.5,0-1,0.2-1.4,0.6C22.3,7,22.1,7.5,22.1,8c0,0.5,0.2,1,0.6,1.4C23,9.7,23.5,9.9,24,9.9c0.5,0,1-0.2,1.4-0.6C25.8,9,26,8.5,26,8c0-0.5-0.2-1-0.6-1.4C25,6.3,24.5,6.1,24,6.1z"/>
</g>
</svg>
