<?xml version="1.0" standalone="no"?>
<!DOCTYPE svg PUBLIC "-//W3C//DTD SVG 20010904//EN"
 "http://www.w3.org/TR/2001/REC-SVG-20010904/DTD/svg10.dtd">
<svg version="1.0" xmlns="http://www.w3.org/2000/svg"
 width="960.000000pt" height="960.000000pt" viewBox="0 0 960.000000 960.000000"
 preserveAspectRatio="xMidYMid meet">
<metadata>
Created by potrace 1.14, written by Peter Selinger 2001-2017
</metadata>
<g transform="translate(0.000000,960.000000) scale(0.100000,-0.100000)"
fill="#000000" stroke="none">
<path d="M4438 9595 c-2 -2 -48 -6 -103 -10 -116 -6 -184 -12 -240 -19 -22 -3
-62 -8 -90 -11 -27 -3 -66 -7 -85 -10 -19 -3 -55 -8 -80 -12 -53 -7 -75 -11
-75 -13 0 -1 -16 -3 -35 -5 -19 -2 -35 -4 -35 -5 0 -1 -13 -4 -30 -6 -16 -3
-82 -17 -145 -30 -63 -14 -124 -27 -135 -30 -46 -9 -273 -76 -324 -95 -31 -11
-63 -22 -71 -24 -21 -5 -247 -92 -300 -117 -208 -95 -399 -197 -540 -287 -36
-23 -73 -44 -82 -47 -10 -4 -18 -10 -18 -13 0 -4 -24 -23 -52 -41 -29 -19 -55
-37 -58 -40 -3 -3 -23 -19 -45 -35 -58 -43 -214 -173 -257 -214 -20 -20 -59
-58 -86 -84 -28 -26 -81 -82 -119 -124 -37 -41 -81 -90 -98 -109 -16 -18 -39
-45 -50 -60 -11 -15 -25 -32 -31 -38 -5 -6 -40 -51 -77 -101 -36 -49 -70 -94
-74 -100 -4 -5 -26 -39 -47 -75 -22 -36 -43 -66 -48 -68 -4 -2 -8 -9 -8 -16 0
-7 -8 -21 -18 -32 -10 -10 -24 -34 -31 -51 -7 -18 -17 -33 -22 -33 -5 0 -9 -9
-9 -19 0 -11 -5 -23 -11 -26 -14 -9 -179 -353 -204 -425 -4 -13 -18 -48 -30
-75 -7 -16 -23 -61 -35 -100 -12 -38 -26 -77 -30 -86 -10 -20 -99 -352 -104
-389 -2 -14 -6 -32 -9 -40 -12 -33 -64 -353 -72 -450 -2 -25 -8 -85 -12 -135
-12 -136 -6 -770 7 -770 2 0 23 -174 24 -202 1 -13 4 -23 7 -23 4 0 6 -8 6
-17 -1 -27 11 -99 38 -228 9 -44 19 -88 20 -98 2 -9 6 -21 10 -26 3 -5 7 -22
9 -38 2 -15 9 -43 14 -60 6 -18 8 -33 5 -33 -3 0 -1 -6 5 -12 5 -7 13 -29 17
-48 4 -19 12 -46 17 -60 5 -14 9 -26 9 -27 -1 -6 64 -186 101 -278 22 -55 66
-155 99 -222 32 -67 59 -126 59 -132 0 -6 5 -11 11 -11 5 0 7 -4 4 -10 -3 -5
-1 -10 4 -10 6 0 11 -7 11 -15 0 -8 5 -15 10 -15 6 0 10 -5 10 -11 0 -14 119
-214 166 -279 19 -26 34 -52 34 -58 0 -6 3 -12 8 -14 4 -1 45 -54 91 -116 47
-61 89 -112 94 -112 6 0 8 -3 5 -6 -3 -3 4 -15 16 -28 11 -12 44 -48 71 -80
203 -235 533 -513 805 -675 47 -28 90 -54 95 -58 29 -23 387 -202 415 -208 3
0 14 -5 25 -11 11 -6 47 -21 80 -33 33 -13 71 -29 85 -36 14 -7 30 -14 35 -15
15 -4 22 -6 133 -44 56 -19 103 -35 105 -35 1 0 9 -2 17 -5 24 -9 163 -47 185
-51 11 -2 40 -9 65 -15 54 -14 88 -22 115 -25 11 -2 20 -4 20 -5 0 -1 9 -3 20
-5 11 -2 36 -7 55 -11 52 -11 136 -25 170 -30 46 -6 109 -15 135 -21 17 -3 48
-7 70 -8 22 -2 66 -6 97 -10 281 -33 789 -38 1118 -10 30 2 87 7 125 10 39 3
77 8 85 10 8 2 40 6 71 10 31 3 66 7 77 10 48 9 100 17 132 21 19 2 58 8 85
14 28 6 64 13 80 16 17 3 48 9 70 15 44 11 66 16 145 33 19 4 54 14 78 22 70
23 71 21 34 -56 -12 -25 -24 -56 -26 -70 -3 -14 -5 -25 -6 -25 -4 0 -10 -46
-11 -90 -4 -159 78 -323 206 -410 31 -21 52 -31 120 -59 93 -39 108 -57 53
-62 -37 -3 -50 -6 -128 -29 -30 -9 -61 -16 -67 -17 -7 -1 -13 -6 -13 -11 0 -6
-3 -7 -6 -4 -12 11 -142 -64 -187 -108 -48 -46 -88 -118 -93 -168 -1 -18 -4
-34 -5 -37 -1 -3 0 -9 1 -15 1 -5 3 -27 6 -47 11 -110 129 -253 265 -320 41
-21 79 -38 84 -38 6 0 22 -6 37 -14 15 -8 42 -17 60 -21 18 -4 37 -10 43 -13
10 -6 13 -7 73 -16 19 -3 37 -8 42 -11 4 -3 25 -7 46 -10 22 -3 49 -8 62 -11
12 -2 44 -7 70 -10 26 -3 58 -8 72 -10 129 -18 617 -25 755 -10 121 13 127 13
165 20 19 4 62 11 95 17 117 20 331 81 345 98 3 3 14 8 25 9 11 2 27 9 35 16
8 6 35 22 60 36 252 133 417 362 456 631 10 66 9 241 -1 289 -4 19 -9 42 -10
50 -2 8 -4 15 -5 15 -1 0 -3 10 -6 21 -8 43 -86 175 -128 217 -78 77 -263 197
-279 180 -4 -3 -7 -1 -7 5 0 7 -6 12 -14 12 -7 0 -27 7 -42 15 -16 8 -37 15
-46 15 -9 0 -20 5 -23 10 -4 6 -11 8 -16 5 -5 -4 -15 -3 -21 2 -7 4 -17 8 -23
9 -5 1 -46 9 -90 17 -173 34 -231 38 -630 42 -176 2 -329 6 -340 8 -111 27
-161 105 -108 167 43 52 54 54 268 56 110 1 223 5 250 8 28 3 68 8 90 11 47 5
58 8 151 30 269 66 485 194 625 371 9 12 33 52 53 89 96 177 115 420 52 655
-9 35 -70 156 -98 197 -22 34 -27 48 -19 56 7 7 67 12 169 13 272 4 261 -1
266 125 2 46 5 86 6 89 1 3 2 8 1 13 -1 4 -3 26 -5 49 -6 59 -25 70 -113 66
l-72 -3 6 25 c6 23 21 60 73 175 10 22 37 94 60 160 23 66 44 127 47 135 3 8
7 20 8 25 2 6 11 37 21 70 10 33 19 65 20 70 37 137 64 254 70 300 1 11 3 20
4 20 1 0 4 14 6 30 3 17 12 68 20 115 8 47 17 112 20 145 2 33 7 71 9 85 18
102 26 614 12 795 -12 147 -16 190 -17 190 -1 0 -3 18 -5 40 -3 21 -7 55 -10
75 -15 96 -25 157 -30 180 -3 14 -8 41 -11 60 -3 19 -14 71 -25 115 -11 44
-21 89 -23 100 -3 11 -19 67 -36 125 -17 58 -32 111 -32 118 -1 6 -5 12 -10
12 -5 0 -6 5 -3 10 3 6 3 16 -2 23 -4 6 -8 17 -9 22 -2 15 -63 176 -79 210 -8
17 -24 55 -35 85 -51 131 -238 489 -262 498 -4 2 -8 9 -8 16 0 7 -22 45 -50
84 -27 39 -50 74 -50 77 0 2 -6 13 -14 22 -8 10 -50 64 -93 120 -115 148 -162
201 -319 358 -140 139 -204 198 -204 191 0 -3 -13 8 -28 22 -37 35 -58 52
-156 123 -44 33 -88 65 -96 71 -20 17 -130 88 -136 88 -5 0 -20 12 -49 38 -8
7 -15 11 -15 8 0 -3 -39 18 -87 46 -84 48 -202 111 -213 113 -7 1 -121 54
-144 66 -10 6 -68 30 -130 53 -61 24 -120 47 -131 51 -11 5 -23 9 -27 10 -5 2
-10 4 -13 5 -3 1 -8 3 -12 4 -5 1 -44 14 -88 28 -77 25 -175 55 -260 78 -49
13 -252 58 -320 70 -27 5 -61 11 -75 14 -14 2 -45 7 -70 10 -25 3 -55 8 -67
10 -26 5 -263 34 -338 41 -27 2 -79 7 -115 10 -74 6 -726 15 -732 10z m460
-710 c12 -3 32 -7 45 -10 12 -2 36 -8 52 -11 17 -4 41 -11 55 -17 14 -5 31
-11 39 -13 20 -4 155 -66 161 -74 3 -3 27 -19 54 -34 86 -50 254 -203 294
-268 9 -16 19 -28 23 -28 3 0 32 -39 64 -87 32 -49 67 -100 77 -115 10 -15 18
-34 18 -43 0 -8 4 -15 8 -15 11 0 102 -191 147 -310 20 -52 41 -104 46 -115
11 -27 69 -206 72 -225 2 -8 5 -19 8 -25 6 -11 27 -88 33 -120 1 -11 6 -27 9
-35 6 -15 41 -170 51 -225 3 -16 13 -64 21 -105 8 -41 17 -91 19 -110 2 -19 9
-62 15 -95 6 -33 13 -80 16 -105 3 -25 8 -58 10 -75 2 -16 4 -30 5 -30 1 0 3
-18 5 -40 1 -22 5 -62 9 -90 48 -392 62 -1050 31 -1465 -2 -25 -6 -83 -10
-130 -3 -47 -8 -96 -10 -110 -2 -14 -7 -54 -10 -90 -4 -36 -9 -78 -11 -95 -2
-16 -6 -52 -9 -80 -3 -27 -8 -61 -10 -75 -2 -14 -11 -70 -20 -125 -9 -55 -18
-111 -21 -125 -2 -14 -7 -40 -10 -59 -3 -18 -8 -43 -10 -55 -3 -11 -7 -30 -9
-41 -3 -11 -12 -51 -21 -90 -9 -38 -16 -80 -17 -92 0 -13 -5 -23 -9 -23 -4 0
-8 -10 -8 -23 0 -12 -9 -54 -21 -92 -11 -39 -22 -80 -25 -92 -2 -12 -9 -35
-15 -50 -6 -16 -12 -35 -14 -43 -3 -15 -70 -202 -82 -230 -3 -8 -7 -17 -8 -20
-2 -6 -15 -36 -43 -101 -31 -71 -100 -208 -133 -264 -16 -27 -32 -57 -36 -65
-4 -8 -11 -19 -15 -25 -4 -5 -36 -48 -70 -95 -73 -98 -163 -190 -245 -252 -32
-23 -60 -46 -63 -49 -5 -6 -89 -54 -130 -75 -68 -33 -122 -53 -190 -69 -3 0
-14 -4 -25 -7 -49 -16 -109 -21 -235 -21 -198 0 -296 20 -454 93 -120 56 -195
110 -307 220 -86 85 -240 281 -235 300 0 3 -10 21 -24 40 -14 19 -30 44 -36
55 -6 11 -28 52 -48 90 -21 39 -38 71 -38 72 1 2 -10 29 -25 60 -56 127 -156
415 -169 488 -3 15 -9 35 -13 44 -5 9 -12 34 -16 56 -10 45 -12 54 -15 58 -1
1 -3 11 -5 22 -3 18 -12 61 -19 90 -3 10 -15 68 -20 95 -2 8 -5 22 -8 30 -3 8
-15 71 -27 140 -29 169 -35 210 -36 243 0 15 -3 27 -6 27 -3 0 -5 16 -4 35 1
19 -1 35 -4 35 -4 0 -7 19 -8 43 -1 23 -4 60 -6 82 -8 58 -17 149 -22 235 -3
41 -8 104 -10 140 -3 36 -7 134 -9 217 -3 84 -7 157 -10 162 -4 5 -2 12 4 16
6 4 8 10 5 15 -11 18 -5 485 10 675 2 33 7 94 10 135 2 41 7 91 9 110 3 19 8
64 12 100 3 36 7 72 9 80 2 9 6 46 9 82 4 37 9 77 11 89 5 25 13 77 20 130 3
19 7 45 10 59 2 13 7 42 11 65 3 22 10 60 16 85 13 62 16 72 22 113 3 20 12
54 20 76 7 22 9 38 4 35 -7 -4 -7 0 0 12 5 11 21 66 36 124 15 58 29 112 32
120 3 8 5 16 5 17 -1 6 92 265 116 323 42 103 160 340 178 361 8 8 15 23 15
32 0 9 5 17 10 17 6 0 10 6 10 14 0 8 3 16 8 18 10 5 52 66 52 77 0 5 3 11 8
13 4 2 31 32 61 68 100 120 194 202 306 268 39 23 76 46 83 52 6 6 12 8 12 5
0 -3 10 0 23 7 12 7 24 13 27 13 3 1 19 7 35 14 44 19 174 52 225 58 25 2 46
6 48 8 5 4 226 -4 250 -10z m2802 -8019 c14 -3 41 -9 60 -12 176 -30 267 -108
256 -219 -6 -67 -9 -78 -29 -108 -9 -15 -17 -29 -17 -32 0 -30 -186 -145 -233
-145 -7 0 -17 -3 -20 -7 -4 -3 -19 -8 -34 -9 -16 -2 -48 -6 -73 -10 -84 -14
-410 -7 -426 9 -3 3 -12 3 -20 0 -8 -3 -14 0 -14 7 0 6 -5 8 -10 5 -6 -4 -39
7 -73 24 -156 76 -215 198 -158 325 33 74 131 158 198 170 14 3 27 7 29 8 6 6
538 0 564 -6z"/>
</g>
</svg>
